<?xml version="1.0" encoding="utf-8"?>
<!-- Generator: Adobe Illustrator 15.0.0, SVG Export Plug-In . SVG Version: 6.00 Build 0)  -->
<!DOCTYPE svg PUBLIC "-//W3C//DTD SVG 1.1//EN" "http://www.w3.org/Graphics/SVG/1.1/DTD/svg11.dtd">
<svg version="1.1" id="Capa_1" xmlns="http://www.w3.org/2000/svg" xmlns:xlink="http://www.w3.org/1999/xlink" x="0px" y="0px"
	 width="634.456px" height="634.455px" viewBox="30.82 -43.286 634.456 634.455"
	 enable-background="new 30.82 -43.286 634.456 634.455" xml:space="preserve">
<circle fill="#FFFFFF" cx="348.048" cy="273.941" r="317.228"/>
<g>
	<path d="M249.026,297.363c-32.286,56.751-67.356,77.766-86.644,85.393c-1.486,23.843-4.893,56.751-5.277,60.687
		c0.673,5.374,2.399,18.375,7.483,20.195c15.446,5.564,27.49,3.166,30.8,2.302c0.816-0.189,1.295-1.007,1.151-1.773
		c-3.31-15.878-22.357-20.147-22.547-20.194c-1.295-0.289-2.303-1.249-2.59-2.544c-8.778-36.652,9.306-59.967,10.076-60.974
		c0.241-0.336,0.576-0.576,0.96-0.817c21.638-12.857,51.283-37.419,63.564-64.381c5.755-12.569,13.191-21.971,19.958-28.687
		c-9.644,2.734-15.882,9.593-16.937,10.795L249.026,297.363z"/>
	<path d="M530.725,95.638c3.552-13.864,3.505-25.235,2.688-32.861c-1.054,1.536-2.302,3.119-3.694,4.749
		c1.773,9.881,0.961,20.149-0.241,27.681C529.862,95.303,530.294,95.494,530.725,95.638L530.725,95.638z"/>
	<path d="M466.149,454.434c-1.008-0.047-1.968-0.479-2.59-1.295c-23.221-28.88-11.754-87.698-0.191-127.037
		c-2.349,1.968-4.126,3.36-5.133,4.08c-14.682,39.196-9.117,103.958-7.82,116.627c16.166,5.324,21.73,14.394,23.602,20.821h9.932
		c0.623,0,0.961-0.432,1.055-0.576c0.144-0.24,0.288-0.622,0.098-1.054c-4.939-11.133-18.375-11.565-18.951-11.565V454.434z"/>
	<path d="M592.612,156.946c0-1.68,0.766-3.166,1.917-4.126c-5.95-5.518-17.271-14.536-37.516-26.047
		c-1.585-0.864-2.159-2.878-1.343-4.511c0,0,0.145-0.334,0.145-1.007c0-0.623-0.145-1.536-0.623-2.687
		c-1.342-3.022-6.142-9.069-23.077-15.303c-0.047,0-0.145-0.047-0.191-0.047c-1.15-0.432-2.349-0.863-3.647-1.295
		c-0.528,2.446-1.007,3.982-1.054,4.317c-0.529,1.824-2.4,2.831-4.224,2.303c-1.823-0.529-2.83-2.399-2.349-4.224
		c0.097-0.288,5.662-20.149,2.158-36.987c0-0.047,0-0.097-0.047-0.19c-0.622-3.072-1.629-6.044-2.975-8.778
		c-1.439,6.62-4.461,15.544-10.797,21.443c-3.982,3.695-6.284,9.646-6.284,16.264c-0.047,5.95,1.773,11.418,4.748,14.249
		c1.343,1.295,1.393,3.454,0.098,4.799c-0.673,0.719-1.536,1.054-2.446,1.054c-0.863,0-1.727-0.288-2.35-0.96
		c-2.398-2.303-4.27-5.565-5.468-9.356c-10.313,9.116-27.393,25.811-34.587,41.545c-12.522,27.44-44.81,56.226-97.627,54.69
		c-54.787-1.629-146.268,3.694-173.811,24.995c-1.007,0.766-2.349,0.96-3.503,0.431c-0.097-0.046-11.994-5.277-19.907-2.111
		c-1.917,0.766-1.968,1.727-2.015,2.159c-0.19,3.55,5.23,10.363,13.623,14.871c1.198,0.623,1.871,1.871,1.773,3.216
		c-0.241,4.317-6.813,106.021-56.896,135.097c-2.59,1.486-4.223,4.173-4.414,7.245l-3.745,60.255
		c-0.047,0.961,0.288,1.871,0.96,2.493c3.119,2.975,8.443,9.356,9.356,18.519c0,0.097,0.097,0.241,0.241,0.241
		c4.079,1.198,17.943,4.989,25.858,3.791c-1.537-6.188-6.62-21.062-21.731-24.995c-1.536-0.384-2.543-1.773-2.543-3.309
		c0.047-5.468,0.863-53.971,18.95-64.668c0.385-0.24,0.816-0.385,1.248-0.432c0.047,0,3.454-0.528,9.26-2.638
		c0.047,0,0.097-0.047,0.19-0.047c17.944-6.619,52.867-26.289,85.346-83.425c0.097-0.144,0.191-0.288,0.288-0.432
		c0.528-0.672,12.81-15.831,32.383-14.438h0.288h0.19c3.36,0.288,6.763,1.054,10.22,2.349c5.468,2.062,13.242,5.9,23.026,10.746
		c27.009,13.386,67.068,33.343,98.92,34.301c-2.734-7.771-5.036-11.947-5.036-11.994c-0.91-1.629-0.335-3.694,1.295-4.655
		c1.629-0.91,3.694-0.335,4.655,1.295c0.143,0.241,3.503,6.331,7.05,17.702c0,0.097,0.047,0.145,0.047,0.241
		c6.141,19.717,11.896,52.197,4.748,95.468c-0.478,2.877,0.336,5.853,2.206,8.107c5.374,6.477,14.104,19.764,15.112,38.284h29.12
		c-1.007-5.036-5.277-13.434-21.444-18.087c-1.341-0.386-2.302-1.536-2.445-2.879c-0.385-3.165-9.018-78.198,8.346-123.009
		c0.24-0.623,0.673-1.198,1.248-1.583c0.048-0.047,6.619-4.655,14.486-12.617l0.047-0.047c16.361-16.55,34.11-42.599,25.715-72.777
		c-1.918-7.003-1.871-14.249,0.19-20.914c4.989-16.217,14.969-45.481,25.569-59.536c2.734-3.646,7.771-4.413,11.516-1.823
		c12.665,8.921,43.801,26.768,64.859,4.367c-2.015-0.723-3.311-2.644-3.311-4.899L592.612,156.946z M542.525,125.573
		c-2.975,0-5.421-2.446-5.421-5.421c0-2.975,2.446-5.421,5.421-5.421c3.021,0,5.421,2.446,5.421,5.421
		C547.946,123.124,545.5,125.573,542.525,125.573z"/>
</g>
</svg>
