<?xml version="1.0" encoding="utf-8"?>
<!-- Generator: Adobe Illustrator 15.0.0, SVG Export Plug-In . SVG Version: 6.00 Build 0)  -->
<!DOCTYPE svg PUBLIC "-//W3C//DTD SVG 1.1//EN" "http://www.w3.org/Graphics/SVG/1.1/DTD/svg11.dtd">
<svg version="1.1" id="Capa_1" xmlns="http://www.w3.org/2000/svg" xmlns:xlink="http://www.w3.org/1999/xlink" x="0px" y="0px"
	 width="560.005px" height="484.618px" viewBox="68.045 31.632 560.005 484.618"
	 enable-background="new 68.045 31.632 560.005 484.618" xml:space="preserve">
<path d="M223.12,310.62c-37.688,66.246-78.625,90.777-101.14,99.68c-1.734,27.832-5.711,66.246-6.16,70.84
	c0.785,6.273,2.801,21.449,8.734,23.574c18.031,6.496,32.09,3.695,35.953,2.688c0.953-0.223,1.512-1.176,1.344-2.07
	c-3.863-18.535-26.098-23.52-26.32-23.574c-1.512-0.336-2.688-1.457-3.023-2.969c-10.246-42.785,10.863-70,11.762-71.176
	c0.281-0.391,0.672-0.672,1.121-0.953c25.258-15.008,59.863-43.68,74.199-75.152c6.719-14.672,15.398-25.647,23.297-33.487
	c-11.258,3.191-18.539,11.198-19.77,12.602L223.12,310.62z"/>
<path d="M551.95,75.145c4.145-16.184,4.09-29.457,3.137-38.359c-1.23,1.793-2.688,3.641-4.313,5.543
	c2.07,11.535,1.121,23.52-0.281,32.312C550.942,74.754,551.446,74.977,551.95,75.145L551.95,75.145z"/>
<path d="M476.57,493.97c-1.176-0.055-2.297-0.559-3.023-1.512c-27.105-33.711-13.72-102.37-0.223-148.29
	c-2.742,2.297-4.816,3.922-5.992,4.762c-17.138,45.754-10.642,121.351-9.129,136.141c18.871,6.215,25.367,16.801,27.551,24.305
	h11.594c0.727,0,1.121-0.504,1.23-0.672c0.168-0.281,0.336-0.727,0.113-1.23c-5.766-12.996-21.449-13.5-22.121-13.5V493.97z"/>
<path d="M624.19,146.71c0-1.961,0.895-3.695,2.238-4.816c-6.945-6.441-20.16-16.969-43.793-30.406
	c-1.849-1.008-2.52-3.359-1.566-5.266c0,0,0.168-0.391,0.168-1.176c0-0.727-0.168-1.793-0.727-3.137
	c-1.566-3.527-7.169-10.586-26.938-17.863c-0.055,0-0.168-0.055-0.223-0.055c-1.344-0.504-2.742-1.008-4.258-1.512
	c-0.617,2.855-1.176,4.648-1.23,5.039c-0.617,2.129-2.801,3.305-4.93,2.688s-3.305-2.801-2.742-4.93
	c0.113-0.336,6.609-23.52,2.52-43.176c0-0.055,0-0.113-0.055-0.223c-0.727-3.586-1.902-7.055-3.473-10.246
	c-1.68,7.727-5.207,18.145-12.603,25.031c-4.648,4.313-7.336,11.258-7.336,18.984c-0.055,6.945,2.07,13.328,5.543,16.633
	c1.566,1.512,1.625,4.031,0.113,5.602c-0.785,0.84-1.793,1.23-2.855,1.23c-1.008,0-2.016-0.336-2.742-1.121
	c-2.801-2.688-4.984-6.496-6.383-10.922c-12.039,10.641-31.977,30.129-40.375,48.496c-14.616,32.031-52.305,65.633-113.96,63.84
	c-63.953-1.902-170.74,4.313-202.89,29.176c-1.176,0.895-2.742,1.121-4.09,0.504c-0.113-0.055-14-6.161-23.238-2.465
	c-2.238,0.895-2.297,2.016-2.352,2.52c-0.223,4.145,6.105,12.098,15.902,17.359c1.398,0.727,2.184,2.184,2.07,3.754
	c-0.281,5.039-7.953,123.76-66.414,157.7c-3.023,1.734-4.93,4.871-5.152,8.457l-4.371,70.336c-0.055,1.121,0.336,2.184,1.121,2.91
	c3.641,3.473,9.855,10.922,10.922,21.617c0,0.113,0.113,0.281,0.281,0.281c4.762,1.398,20.945,5.824,30.184,4.426
	c-1.793-7.223-7.727-24.586-25.367-29.177c-1.793-0.449-2.969-2.07-2.969-3.863c0.055-6.383,1.008-63,22.121-75.487
	c0.449-0.281,0.953-0.449,1.457-0.504c0.055,0,4.031-0.617,10.809-3.078c0.055,0,0.113-0.055,0.223-0.055
	c20.945-7.727,61.711-30.688,99.625-97.384c0.113-0.168,0.223-0.336,0.336-0.504c0.617-0.785,14.953-18.479,37.801-16.854h0.336
	h0.223c3.922,0.336,7.894,1.23,11.93,2.742c6.383,2.406,15.457,6.887,26.879,12.543c31.527,15.625,78.289,38.922,115.47,40.039
	c-3.191-9.07-5.879-13.945-5.879-14c-1.063-1.902-0.391-4.313,1.512-5.434c1.902-1.063,4.313-0.391,5.434,1.512
	c0.168,0.281,4.09,7.391,8.23,20.664c0,0.113,0.055,0.168,0.055,0.281c7.168,23.016,13.887,60.93,5.543,111.439
	c-0.559,3.359,0.391,6.832,2.574,9.465c6.273,7.559,16.465,23.07,17.641,44.688h33.992c-1.176-5.879-6.16-15.681-25.031-21.113
	c-1.566-0.449-2.688-1.793-2.855-3.359c-0.449-3.695-10.526-91.281,9.742-143.59c0.281-0.727,0.785-1.398,1.457-1.848
	c0.055-0.055,7.727-5.434,16.91-14.728l0.055-0.055c19.099-19.319,39.816-49.727,30.017-84.953
	c-2.238-8.176-2.184-16.633,0.223-24.414c5.824-18.93,17.473-53.09,29.848-69.496c3.191-4.257,9.07-5.152,13.441-2.129
	c14.784,10.414,51.129,31.246,75.711,5.098c-2.352-0.844-3.863-3.086-3.863-5.719L624.19,146.71z M565.725,110.089
	c-3.473,0-6.328-2.855-6.328-6.328s2.855-6.328,6.328-6.328c3.527,0,6.328,2.855,6.328,6.328
	C572.053,107.229,569.197,110.089,565.725,110.089z"/>
</svg>
